<svg width="154" height="60" viewBox="0 0 154 60" fill="none" xmlns="http://www.w3.org/2000/svg">
<g clip-path="url(#clip0_110_1249)">
<path d="M31.7469 34.3986C31.9115 34.8438 31.8921 35.2987 31.9598 35.744C32.0179 36.1698 32.0566 36.6054 32.2212 37.0216C32.4438 37.5733 32.6471 37.7088 33.2472 37.7088C33.3439 37.7088 33.4407 37.7088 33.5375 37.7088C34.5441 37.6798 35.1055 36.799 34.6506 35.8891C34.0021 34.6018 33.1988 33.4113 32.2599 32.3176C32.2309 32.2789 32.1921 32.2402 32.1631 32.2111C31.7566 31.8627 31.4372 31.9208 31.2049 32.395C30.9145 32.9951 30.7306 33.6243 30.5564 34.2631C29.995 36.3344 29.5885 38.4347 29.2885 40.5544C29.182 41.2803 29.3756 41.561 30.1112 41.6965C30.8952 41.832 31.6888 41.7643 32.4728 41.7159C33.5472 41.6481 34.6312 41.6094 35.6959 41.8708C36.567 42.0837 37.2155 42.5676 37.4285 43.4968C37.5543 44.0388 37.5543 44.5906 37.3801 45.1229C37.1478 45.8585 36.5477 46.1585 35.8605 46.3134C35.4056 46.4199 34.9313 46.4296 34.4667 46.4296C33.2859 46.4296 32.1147 46.4489 30.9532 46.6812C30.8564 46.7006 30.7597 46.7006 30.6629 46.7006C28.6496 46.7296 26.6364 46.8458 24.6135 46.7877C22.7164 46.7296 20.8193 46.5844 18.9803 46.0424C16.6283 45.3455 14.5667 44.1744 12.7955 42.4805C11.8856 41.6094 11.0242 40.6996 10.1531 39.7898C8.71094 38.2895 7.23005 36.8377 5.72981 35.3955C4.7232 34.4276 3.73594 33.421 2.82611 32.3563C1.49042 30.8077 0.696739 28.9977 0.328938 26.9845C-0.0098265 25.1455 -0.0485424 23.2968 0.0579264 21.4481C0.145037 20.0543 0.570912 18.738 1.16133 17.47C1.50977 16.7248 1.90661 16.0085 2.3712 15.3213C2.44863 15.2052 2.5551 15.0987 2.6035 14.9051C2.02276 14.576 1.36459 14.3341 0.851603 13.8598C0.861282 13.7436 0.948393 13.6952 1.02582 13.6469C2.83579 12.466 4.76191 11.5562 6.88161 11.0819C7.28813 10.9948 7.31716 11.0142 7.25909 11.3916C6.99776 13.1532 7.00743 14.9245 7.1623 16.6957C7.17198 16.7732 7.17198 16.8603 7.17198 16.9377C7.17198 17.0055 7.17198 17.0635 7.17198 17.1603C6.76546 17.0829 6.46541 16.8216 6.12665 16.6667C5.78788 16.5118 5.46848 16.3279 5.11035 16.1343C4.88774 16.6667 4.78127 17.2184 4.6748 17.7604C4.37475 19.2607 4.21021 20.7899 4.28764 22.3192C4.42315 25.0487 5.12003 27.5943 6.88161 29.7624C8.13988 31.3013 9.74659 32.2498 11.7017 32.5499C13.2407 32.7822 14.7506 32.5983 16.2509 32.2402C18.2351 31.7562 20.1031 30.9722 21.9518 30.1205C23.4714 29.4139 24.9523 28.6299 26.4622 27.904C28.0495 27.149 29.6369 26.4037 31.2339 25.6681C31.7469 25.4359 32.2793 25.2519 32.8503 25.1939C33.6053 25.1068 34.2441 25.3487 34.8055 25.823C35.3378 26.2779 35.754 26.8296 36.1315 27.42C37.3414 29.3268 38.4544 31.2916 39.4611 33.3145C40.1289 34.6599 40.729 36.0343 41.0774 37.4959C41.1549 37.8056 41.2033 38.125 41.2323 38.4444C41.3001 39.1994 40.9613 39.7123 40.3418 40.0898C39.645 40.5157 38.8706 40.7383 38.077 40.9029C36.2767 41.2707 34.457 41.2223 32.6374 41.1932C32.0857 41.1835 31.5437 41.1448 31.0113 40.9996C30.3435 40.8254 30.1402 40.5254 30.208 39.8382C30.2563 39.3542 30.4209 38.8993 30.537 38.425C30.7403 37.5926 30.9726 36.7699 31.1758 35.9472C31.321 35.4052 31.5243 34.9019 31.7469 34.3986Z" fill="white"/>
<path d="M23.975 28.2044C22.1747 25.3007 20.8874 22.2421 19.9098 18.9416C19.0774 19.9676 18.2837 20.9355 17.49 21.913C16.2705 21.071 15.2929 20.0353 14.5767 18.7674C14.2379 18.1576 13.9959 17.5091 13.8701 16.8219C13.6184 15.4765 13.6184 14.1311 13.8507 12.7858C14.6154 8.34311 18.4192 5.0329 23.0845 4.92643C25.4462 4.86835 27.5465 5.63299 29.4049 7.08484C30.005 7.54943 30.5276 8.10113 31.0503 8.65284C31.3503 8.96256 31.6697 9.26261 32.0085 9.5433C32.2021 9.69816 32.3376 9.68849 32.5118 9.53362C32.8603 9.20454 33.2281 8.87545 33.5765 8.54637C34.5444 7.64622 35.5607 6.80415 36.7125 6.1363C38.4354 5.13937 40.2744 4.63606 42.2682 4.91675C44.5331 5.23616 46.4883 6.20405 48.0853 7.83012C49.5759 9.3594 49.7791 11.1887 48.7725 13.0761C48.3563 13.8504 47.824 14.528 47.2045 15.1571C45.4333 16.9671 43.4297 18.477 41.2326 19.7256C40.2356 20.2966 39.2387 20.8484 38.2418 21.4097C37.7965 21.6711 37.3707 21.9614 37.0222 22.3486C36.5963 22.8035 36.364 23.3262 36.3737 23.965C36.3834 24.536 36.4996 25.0877 36.7319 25.6104C37.7288 27.9043 39.0161 30.0143 40.6422 31.9114C40.8261 32.1244 41.0196 32.3083 41.2616 32.4534C41.8327 32.8019 42.4231 32.8213 43.0038 32.4728C43.2555 32.3276 43.4781 32.1437 43.6814 31.9308C44.8041 30.808 45.6268 29.4917 46.2076 28.0205C46.3044 27.7688 46.3818 27.4978 46.4399 27.2365C46.5463 26.7525 46.5367 26.7429 46.0721 26.588C45.472 26.375 44.8428 26.2299 44.2621 25.9492C43.7588 25.7072 43.1974 25.6104 42.5489 25.5136C43.0716 26.1911 43.8749 26.4912 44.2331 27.2462C43.8362 27.5075 43.4684 27.7688 43.0813 27.9914C42.7038 28.2141 42.5683 28.1753 42.3263 27.8075C41.8907 27.1397 41.5229 26.4525 41.2519 25.6975C41.1551 25.4265 41.0777 25.1458 41.0487 24.8554C41.01 24.4683 41.0293 24.4489 41.4358 24.4973C42.8974 24.6425 44.2137 25.3007 45.6075 25.6878C46.2076 25.8621 46.7399 26.2976 47.3013 26.5977C47.4852 26.6945 47.4949 26.83 47.4271 26.9945C47.2432 27.4301 47.0013 27.8269 46.7593 28.2237C46.4108 28.8045 46.0721 29.3852 45.772 29.995C45.5881 30.3531 45.4429 30.7306 45.3655 31.1274C45.23 31.8243 45.5204 32.2889 46.1979 32.4922C46.9141 32.7051 47.5336 32.5406 48.0659 32.0373C48.4918 31.6404 48.8596 31.1952 49.1887 30.7112C49.9146 29.6369 50.505 28.4947 51.1535 27.3817C52.2569 25.4652 53.2248 23.481 54.0863 21.4484C55.1509 18.9416 55.7801 16.3476 55.6833 13.6085C55.6059 11.4404 55.0638 9.39812 53.9411 7.53975C52.3053 4.81028 50.0501 2.73898 47.1852 1.36456C44.5428 0.106296 41.7649 -0.232468 38.8903 0.241802C36.6254 0.619282 34.5638 1.49039 32.6473 2.71962C32.357 2.90352 32.1634 2.89384 31.8827 2.70994C30.5857 1.85819 29.1919 1.18066 27.711 0.706393C25.5139 -0.000172474 23.2877 -0.193752 21.0229 0.203086C18.2256 0.696714 15.7865 1.96466 13.6184 3.76495C12.4086 4.76189 11.4504 5.96208 10.6954 7.33649C9.04029 10.337 8.50794 13.5407 9.02093 16.9187C9.47584 19.9095 10.7051 22.5228 12.9409 24.6038C13.3184 24.9522 13.6959 25.3007 14.1024 25.6782C13.5217 26.4428 12.9312 27.2074 12.4473 28.0979C16.2995 28.8432 20.1034 28.9787 23.975 28.2044Z" fill="white"/>
<path d="M64.5299 22.4067C64.3363 20.0934 63.6975 17.9156 62.4973 15.9218C61.6455 14.5086 60.6389 13.2117 59.2935 12.205C58.8676 11.8856 58.4031 11.6243 57.861 11.4888C57.803 11.6146 57.832 11.6921 57.8514 11.7695C58.0449 12.5341 58.2772 13.2891 58.5289 14.0344C59.2064 16.0186 59.8549 18.0124 59.9807 20.1224C60.0969 21.9518 60.0194 23.7617 59.6807 25.562C59.3613 27.2559 58.5095 28.6787 57.3481 29.9466C56.4576 30.9242 55.509 31.8534 54.5799 32.7826C48.4531 38.8997 42.336 45.0265 36.2092 51.1533C35.5123 51.8501 34.8251 52.5567 34.0701 53.1858C33.7991 53.4181 33.5087 53.6117 33.199 53.7859C32.5505 54.1537 31.902 54.1344 31.2632 53.7859C30.8664 53.573 30.4986 53.3117 30.1598 53.0116C29.6081 52.518 29.0758 52.005 28.5531 51.4727C27.8852 50.7758 27.2077 50.0789 26.5399 49.382C26.143 48.9658 25.6688 48.7142 25.0977 48.6754C23.491 48.569 21.8939 48.3464 20.2969 48.1044C19.7355 48.0269 19.1645 47.9398 18.5063 48.0173C18.6999 48.2496 18.8451 48.4431 18.9999 48.6174C19.4936 49.1497 19.9872 49.682 20.5002 50.195C23.1038 52.8568 25.7946 55.4314 28.4466 58.0544C29.0758 58.6835 29.7823 59.2255 30.5857 59.6224C31.7181 60.1644 32.8506 60.1547 33.9733 59.5643C34.7089 59.1771 35.3477 58.6641 35.9478 58.1028C36.5286 57.5704 37.09 57.009 37.6513 56.4573C44.0395 50.1176 50.4663 43.8263 56.7673 37.3994C58.2772 35.8508 59.7678 34.2925 61.239 32.7051C62.2359 31.6308 63.0393 30.4306 63.5716 29.0658C64.4331 26.9074 64.7234 24.6909 64.5299 22.4067Z" fill="white"/>
<path d="M106.565 4.5107C106.207 4.5107 106.207 4.52038 106.198 4.89786C106.188 5.35277 106.188 5.798 106.198 6.25291C106.207 6.48521 106.111 6.56264 105.888 6.56264C105.472 6.55296 105.046 6.56264 104.63 6.56264C104.184 6.56264 104.175 6.55296 104.175 6.10773C104.175 4.65588 104.175 3.20404 104.175 1.75219C104.175 1.04562 104.272 1.1037 103.536 1.1037C103.11 1.1037 103.11 1.11338 103.1 1.52957C103.1 2.83623 103.1 4.1429 103.1 5.44956C103.1 6.68847 103.1 7.92738 103.1 9.17597C103.1 9.86317 103.004 9.81478 103.759 9.81478C104.175 9.81478 104.175 9.8051 104.175 9.37922C104.175 8.75009 104.175 8.12096 104.175 7.49182C104.175 7.1337 104.184 7.12402 104.514 7.12402C104.968 7.11434 105.414 7.1337 105.869 7.11434C106.12 7.10466 106.207 7.21113 106.198 7.45311C106.188 8.01449 106.188 8.58555 106.198 9.14693C106.207 9.87285 106.091 9.81478 106.875 9.81478C107.262 9.81478 107.272 9.8051 107.272 9.40826C107.272 8.00481 107.282 6.60136 107.272 5.19791C107.262 4.43327 107.398 4.5107 106.565 4.5107Z" fill="white"/>
<path d="M101.978 1.90705C100.613 1.90705 99.2384 1.90705 97.8737 1.90705C97.7092 1.90705 97.6027 1.94577 97.593 2.14903C97.593 2.37164 97.7092 2.42004 97.9027 2.41036C98.1931 2.40068 98.4835 2.40068 98.7739 2.40068C99.1417 2.40068 99.1513 2.41036 99.1513 2.77816C99.1513 3.87189 99.1513 4.96561 99.1513 6.06902C99.1513 6.582 99.1513 7.10467 99.1513 7.61765C99.1513 8.24679 99.161 8.87592 99.1513 9.50505C99.1513 9.72767 99.2384 9.83414 99.4611 9.82446C99.7224 9.81478 99.974 9.82446 100.235 9.82446C100.661 9.81478 100.671 9.81478 100.671 9.38891C100.671 8.24679 100.671 7.10467 100.671 5.96255C100.671 4.89786 100.671 3.83317 100.671 2.76848C100.671 2.42004 100.681 2.42004 101.019 2.41036C101.339 2.40068 101.668 2.40068 101.987 2.41036C102.142 2.41036 102.22 2.35229 102.229 2.18774C102.239 1.98449 102.161 1.89737 101.978 1.90705Z" fill="white"/>
<path d="M112.141 9.4373C112.024 9.42762 111.918 9.42762 111.802 9.42762C111.318 9.42762 110.834 9.4373 110.35 9.42762C109.934 9.41794 109.808 9.28243 109.798 8.86624C109.789 8.47908 109.789 8.09192 109.798 7.70476C109.798 7.32728 109.808 7.32728 110.166 7.3176C110.602 7.30792 111.037 7.30792 111.473 7.3176C111.686 7.3176 111.753 7.22081 111.744 7.01755C111.734 6.83365 111.608 6.82397 111.473 6.82397C111.018 6.82397 110.573 6.81429 110.118 6.82397C109.905 6.82397 109.789 6.77558 109.789 6.5336C109.798 6.11741 109.779 5.69153 109.798 5.27534C109.808 4.97529 109.876 4.92689 110.185 4.90754C110.505 4.89786 110.834 4.90754 111.153 4.90754C111.444 4.90754 111.734 4.90754 112.024 4.89786C112.111 4.89786 112.17 4.83978 112.17 4.74299C112.17 4.65588 112.15 4.57845 112.063 4.54941C111.986 4.52038 111.908 4.52038 111.821 4.52038C111.115 4.52038 110.398 4.5107 109.692 4.52038C108.985 4.53006 108.724 4.80107 108.714 5.48827C108.704 6.03998 108.714 6.582 108.714 7.1337C108.714 7.66604 108.714 8.19839 108.714 8.73073C108.714 9.53409 108.937 9.76638 109.74 9.79542C109.769 9.79542 109.808 9.79542 109.837 9.79542C110.514 9.79542 111.192 9.79542 111.87 9.79542C111.966 9.79542 112.063 9.79542 112.16 9.78574C112.257 9.77606 112.295 9.70831 112.295 9.6212C112.305 9.51473 112.257 9.44698 112.141 9.4373Z" fill="white"/>
<path d="M92.1248 55.0349C92.1152 54.3477 92.2023 54.4349 91.5441 54.4349C88.2048 54.4349 84.8656 54.4349 81.5264 54.4349C80.8101 54.4349 80.8779 54.5607 80.8779 53.796C80.9069 46.3142 80.8585 38.8323 80.9166 31.3505C80.9843 22.9685 80.9359 14.5768 80.9359 6.19481C80.9359 6.07866 80.9456 5.97219 80.9359 5.85604C80.9069 5.61407 81.0134 5.556 81.2457 5.556C82.262 5.56568 83.2783 5.56568 84.2945 5.56568C84.6817 5.56568 85.0689 5.60439 85.4463 5.67214C87.6435 6.07866 89.2211 7.2595 90.0051 9.38887C90.2374 10.018 90.3245 10.6665 90.3923 11.3247C90.6633 13.967 89.2211 16.2513 86.7143 17.1417C85.9013 17.4321 85.0689 17.587 84.2171 17.6741C83.646 17.7418 83.075 17.7418 82.4459 17.7709C82.533 17.9548 82.591 18.0806 82.6491 18.2064C82.9879 18.8646 83.3363 19.5228 83.6848 20.1713C85.7077 24.0041 87.7306 27.837 89.7341 31.6796C89.8987 31.999 90.0826 32.1054 90.4407 32.0958C92.1055 32.0764 93.7606 32.0861 95.4254 32.0861C95.5609 32.0861 95.7061 32.1345 95.8512 32.0183C93.3637 27.6821 90.8859 23.375 88.3888 19.0195C88.6694 18.9807 88.8921 18.942 89.1147 18.913C90.2374 18.7484 91.3215 18.4581 92.3378 17.9451C93.9638 17.1224 95.0866 15.8931 95.5222 14.0832C95.7351 13.1927 95.7738 12.3022 95.6673 11.3924C95.3092 8.37258 93.7993 6.15609 91.0408 4.83007C89.8987 4.28805 88.6791 4.09447 87.4209 4.10415C83.6944 4.10415 79.968 4.10415 76.2416 4.10415C75.5157 4.10415 75.6222 4.01704 75.6222 4.70425C75.6415 13.9961 75.6028 23.2782 75.6415 32.57C75.6803 40.41 75.6512 48.25 75.6512 56.0803C75.6512 56.6417 75.6222 56.6029 76.1739 56.6029C76.1932 56.6029 76.2029 56.6029 76.2223 56.6029C81.3231 56.6029 86.4142 56.6029 91.5151 56.6029C91.6119 56.6029 91.7086 56.5933 91.8054 56.6029C92.0668 56.632 92.1345 56.4965 92.1248 56.2642C92.1152 55.8673 92.1345 55.4511 92.1248 55.0349Z" fill="white"/>
<path d="M127.84 37.9709C127.385 37.9709 127.376 37.9709 127.26 38.4064C126.534 40.9617 125.808 43.5169 125.082 46.0722C124.433 48.3661 123.785 50.66 123.136 52.9539C123.039 53.283 122.933 53.6024 122.73 53.8735C122.536 54.1251 122.343 54.1251 122.139 53.8735C121.975 53.6702 121.888 53.4282 121.81 53.1766C121.636 52.6055 121.471 52.0345 121.307 51.4634C120.02 47.1078 118.732 42.7523 117.445 38.4064C117.29 37.8935 117.348 37.9806 116.864 37.9709C115.751 37.9709 114.638 37.9709 113.525 37.9709C113.38 37.9709 113.235 37.9322 113.109 38.0193C113.08 38.1451 113.138 38.2419 113.167 38.3484C114.667 43.4976 116.167 48.6371 117.677 53.7863C117.852 54.3864 118.094 54.9769 118.384 55.5286C118.858 56.4577 119.594 57.0191 120.649 57.1159C120.939 57.1449 121.229 57.145 121.52 57.1256C122.739 57.0578 123.62 56.4868 124.124 55.3543C124.356 54.8414 124.559 54.3187 124.714 53.7767C125.992 49.4211 127.269 45.0656 128.547 40.71C128.808 39.8196 129.069 38.9194 129.34 37.9709C128.798 37.9709 128.324 37.9709 127.84 37.9709Z" fill="white"/>
<path d="M99.2582 22.8426C99.2582 24.8559 99.2582 26.8691 99.2582 28.892C99.2582 29.3663 99.3066 29.8309 99.4421 30.2761C99.7035 31.1859 100.284 31.7763 101.213 32.0086C101.63 32.1151 102.046 32.1151 102.462 32.1151C105.337 32.1151 108.202 32.1151 111.076 32.1151C111.396 32.1151 111.812 32.27 111.996 32.0377C112.18 31.7957 112.034 31.3892 112.054 31.0504C112.064 30.8665 111.996 30.7794 111.802 30.7891C111.686 30.7988 111.58 30.7891 111.463 30.7891C109.353 30.7891 107.243 30.7891 105.124 30.7891C104.901 30.7891 104.669 30.7891 104.446 30.7697C103.546 30.6923 103.11 30.2277 103.11 29.3372C103.11 27.4982 103.11 25.6592 103.11 23.8202C103.11 23.7428 103.11 23.6557 103.11 23.5782C103.101 23.4427 103.159 23.3653 103.304 23.375C103.43 23.375 103.565 23.375 103.691 23.375C105.627 23.375 107.563 23.375 109.499 23.375C109.615 23.375 109.721 23.375 109.837 23.375C109.992 23.3847 110.079 23.3266 110.079 23.1524C110.079 22.6975 110.079 22.2522 110.079 21.7973C110.079 21.6618 110.021 21.5844 109.886 21.5844C109.76 21.5844 109.624 21.5844 109.499 21.5844C107.514 21.5844 105.53 21.5844 103.546 21.5844C103.12 21.5844 103.12 21.5844 103.12 21.1779C103.12 19.4066 103.12 17.6353 103.12 15.8544C103.12 15.7576 103.12 15.6608 103.13 15.564C103.178 15.0995 103.333 14.9349 103.798 14.8865C104.088 14.8575 104.378 14.8575 104.669 14.8575C106.769 14.8575 108.86 14.8575 110.96 14.8575C111.086 14.8575 111.221 14.8575 111.347 14.8575C111.463 14.8575 111.521 14.7897 111.521 14.6736C111.521 14.3348 111.521 13.9961 111.521 13.6573C111.521 13.5411 111.463 13.4734 111.357 13.4637C111.26 13.454 111.163 13.454 111.067 13.454C108.356 13.454 105.646 13.454 102.936 13.454C102.394 13.454 101.843 13.4831 101.3 13.5992C100.294 13.8122 99.6938 14.4413 99.4518 15.4189C99.326 15.9318 99.2679 16.4642 99.2679 16.9965C99.2582 18.942 99.2582 20.8972 99.2582 22.8426Z" fill="white"/>
<path d="M140.549 32.1054C140.858 32.1054 141.284 32.2603 141.468 32.0183C141.652 31.7763 141.507 31.3698 141.526 31.0311C141.536 30.8472 141.459 30.76 141.275 30.7697C141.159 30.7794 141.052 30.7697 140.936 30.7697C138.807 30.7697 136.677 30.7697 134.548 30.7697C134.306 30.7697 134.064 30.7697 133.822 30.7407C133.009 30.6536 132.583 30.189 132.583 29.3663C132.573 27.4982 132.583 25.6302 132.583 23.7525C132.583 23.3169 132.573 23.3459 133.019 23.3459C134.354 23.3459 135.7 23.3459 137.035 23.3459C137.761 23.3459 138.487 23.3363 139.213 23.3556C139.465 23.3653 139.562 23.2782 139.552 23.0169C139.532 22.6297 139.542 22.2425 139.552 21.8554C139.562 21.6134 139.455 21.536 139.232 21.5553C139.116 21.565 139.01 21.5553 138.894 21.5553C136.939 21.5553 134.993 21.5553 133.038 21.5553C132.593 21.5553 132.593 21.5553 132.583 21.1101C132.583 19.3679 132.583 17.6257 132.583 15.8835C132.583 15.7383 132.593 15.5931 132.612 15.4479C132.67 15.0511 132.796 14.9059 133.193 14.8575C133.493 14.8188 133.803 14.8188 134.112 14.8188C136.213 14.8188 138.303 14.8188 140.404 14.8188C140.52 14.8188 140.626 14.8091 140.742 14.8188C140.907 14.8284 140.975 14.751 140.975 14.5865C140.975 14.2671 140.975 13.938 140.975 13.6186C140.975 13.4734 140.907 13.4153 140.762 13.4153C140.684 13.4153 140.597 13.4153 140.52 13.4153C137.81 13.4153 135.1 13.4153 132.389 13.4153C131.828 13.4153 131.267 13.4443 130.705 13.5702C129.786 13.7831 129.205 14.3445 128.944 15.2446C128.798 15.7576 128.74 16.2803 128.74 16.8223C128.75 18.8259 128.74 20.8197 128.74 22.8233C128.74 24.8559 128.74 26.8885 128.74 28.921C128.74 29.4243 128.789 29.918 128.953 30.3922C129.224 31.1956 129.776 31.7279 130.599 31.9506C131.044 32.0764 131.489 32.0764 131.944 32.0764C134.809 32.1151 137.684 32.1151 140.549 32.1054Z" fill="white"/>
<path d="M144.575 55.2963C144.478 55.3059 144.382 55.2963 144.285 55.2963C142.126 55.2963 139.968 55.2963 137.8 55.2963C137.577 55.2963 137.345 55.2866 137.122 55.2479C136.29 55.1124 135.922 54.6671 135.922 53.8251C135.922 51.986 135.922 50.147 135.922 48.308C135.922 47.8144 135.893 47.8531 136.406 47.8531C138.197 47.8531 139.987 47.8531 141.778 47.8531C142.068 47.8531 142.359 47.8531 142.649 47.8531C142.804 47.8531 142.891 47.8144 142.891 47.6402C142.881 47.1853 142.891 46.74 142.891 46.2851C142.891 46.1399 142.823 46.0819 142.688 46.0916C142.572 46.0916 142.465 46.0916 142.349 46.0916C140.345 46.0916 138.352 46.0916 136.348 46.0916C135.932 46.0916 135.922 46.0819 135.922 45.6657C135.922 43.9041 135.922 42.1522 135.922 40.3906C135.922 40.2164 135.951 40.0422 135.98 39.868C136.029 39.6163 136.174 39.4808 136.416 39.4227C136.735 39.3356 137.055 39.355 137.374 39.355C139.503 39.355 141.633 39.355 143.762 39.355C143.878 39.355 143.985 39.3453 144.101 39.355C144.275 39.3647 144.324 39.2776 144.324 39.1227C144.314 38.813 144.314 38.5129 144.324 38.2032C144.324 38.029 144.246 37.9806 144.091 37.9806C143.994 37.9806 143.898 37.9806 143.801 37.9806C141.139 37.9806 138.477 37.9806 135.816 37.9806C135.448 37.9806 135.07 37.9709 134.703 38.0193C133.464 38.1645 132.515 38.5226 132.186 40.2358C132.109 40.652 132.089 41.0682 132.089 41.4844C132.089 43.4395 132.089 45.385 132.089 47.3401C132.089 49.3243 132.089 51.3085 132.089 53.2927C132.089 53.6024 132.099 53.9025 132.138 54.2122C132.293 55.5382 133.038 56.3803 134.248 56.5739C134.616 56.632 134.983 56.6416 135.361 56.6416C138.361 56.6513 141.362 56.6416 144.362 56.6416C144.44 56.6416 144.527 56.632 144.604 56.6416C144.808 56.6513 144.904 56.5836 144.895 56.3706C144.885 56.1287 144.875 55.8867 144.895 55.6447C144.914 55.3931 144.846 55.2672 144.575 55.2963Z" fill="white"/>
<path d="M114.88 22.0877C115.229 22.349 115.567 22.62 115.925 22.8717C116.526 23.2879 117.155 23.6363 117.803 23.9751C118.79 24.4977 119.749 25.0591 120.629 25.7367C121.51 26.4142 121.762 27.3434 121.607 28.4081C121.462 29.4147 120.842 30.0051 119.933 30.3535C119.323 30.5858 118.694 30.6826 118.045 30.7407C116.768 30.8472 115.509 30.6149 114.241 30.4987C113.68 30.4503 113.68 30.4213 113.68 30.973C113.68 31.6505 113.68 31.6602 114.367 31.786C116.342 32.1538 118.336 32.2312 120.339 31.9796C121.481 31.8344 122.575 31.4956 123.582 30.9149C124.385 30.46 124.966 29.7921 125.246 28.921C125.759 27.324 125.643 25.7657 124.753 24.3235C124.172 23.3847 123.407 22.6007 122.449 22.0199C121.307 21.323 120.155 20.6455 118.984 19.997C118.645 19.8131 118.316 19.6099 118.006 19.3679C117.551 19.0098 117.213 18.5742 116.99 18.0322C116.903 17.8096 116.806 17.5773 116.864 17.3256C117.029 16.6191 117.29 15.9802 117.91 15.5253C118.568 15.0511 119.313 14.9059 120.097 14.8575C121.355 14.7897 122.604 14.9059 123.93 15.0317C123.93 14.6833 123.93 14.3735 123.93 14.0735C123.93 13.7057 123.92 13.7154 123.582 13.6766C122.43 13.5508 121.268 13.4734 120.107 13.454C118.974 13.4347 117.852 13.5799 116.787 13.9961C115.906 14.3348 115.103 14.8091 114.445 15.4963C113.128 16.8804 112.557 20.3261 114.88 22.0877Z" fill="white"/>
<path d="M153.799 13.8315C153.79 13.454 153.79 13.454 153.431 13.4443C153.335 13.4443 153.238 13.4443 153.141 13.4443C150.838 13.4443 148.524 13.4443 146.221 13.4443C145.059 13.4443 143.898 13.4443 142.736 13.4443C142.359 13.4443 142.359 13.454 142.349 13.8121C142.349 14.0348 142.339 14.2671 142.349 14.4897C142.359 14.8284 142.359 14.8381 142.707 14.8381C143.675 14.8381 144.643 14.8381 145.611 14.8381C146.23 14.8381 146.153 14.7897 146.153 15.3801C146.153 20.752 146.153 26.1141 146.153 31.486C146.153 31.6118 146.163 31.7473 146.153 31.8731C146.143 32.0377 146.221 32.1054 146.376 32.0957C146.647 32.0861 146.927 32.0957 147.198 32.0957C148.021 32.0957 148.844 32.0957 149.666 32.0957C150.024 32.0957 150.024 32.0861 150.034 31.7183C150.034 31.6215 150.034 31.5247 150.034 31.4279C150.034 28.7662 150.034 26.1044 150.034 23.4427C150.034 20.752 150.034 18.0612 150.034 15.3608C150.034 15.2446 150.034 15.1382 150.034 15.022C150.024 14.8768 150.102 14.8188 150.237 14.8284C150.354 14.8284 150.46 14.8284 150.576 14.8284C151.515 14.8284 152.444 14.8284 153.383 14.8284C153.79 14.8284 153.79 14.8284 153.799 14.4026C153.809 14.2187 153.809 14.0251 153.799 13.8315Z" fill="white"/>
<path d="M109.16 40.4003C107.253 38.6194 104.988 37.6321 102.365 37.516C100.865 37.4482 99.4518 37.7967 98.0871 38.3677C96.2287 39.142 94.8349 40.4293 93.8767 42.1909C93.0637 43.6815 92.7636 45.3076 92.6862 46.982C92.5894 49.2372 93.2863 51.2601 94.6704 53.012C97.3031 56.3513 100.7 57.8031 104.949 56.8643C106.653 56.4868 108.163 55.7221 109.392 54.4639C110.863 52.9539 111.696 51.144 111.996 49.0727C112.16 47.9402 112.257 46.7981 112.044 45.656C111.667 43.575 110.689 41.8328 109.16 40.4003ZM106.479 52.741C106.121 53.525 105.627 54.2219 104.979 54.793C103.672 55.9351 101.784 56.0415 100.381 55.0253C99.2195 54.1832 98.4839 53.0314 97.9806 51.7054C97.3805 50.1277 97.1579 48.4823 97.2256 46.8175C97.2934 45.2011 97.6225 43.6234 98.2516 42.1232C98.542 41.4166 98.9679 40.7971 99.4518 40.1971C100.933 38.3677 104.011 38.3484 105.501 40.2842C106.392 41.436 106.924 42.7233 107.234 44.1267C107.456 45.1721 107.602 46.2174 107.582 47.2917C107.563 49.1791 107.263 51.0085 106.479 52.741Z" fill="white"/>
</g>
<defs>
<clipPath id="clip0_110_1249">
<rect width="153.6" height="60" fill="white"/>
</clipPath>
</defs>
</svg>
