<svg width="128" height="50" viewBox="0 0 128 50" fill="none" xmlns="http://www.w3.org/2000/svg">
<g clip-path="url(#clip0_110_810)">
<path d="M26.4562 28.6655C26.5933 29.0365 26.5772 29.4156 26.6336 29.7866C26.682 30.1415 26.7143 30.5045 26.8514 30.8513C27.0369 31.3111 27.2063 31.424 27.7064 31.424C27.787 31.424 27.8677 31.424 27.9483 31.424C28.7872 31.3998 29.255 30.6658 28.8759 29.9076C28.3355 28.8349 27.666 27.8428 26.8837 26.9313C26.8595 26.8991 26.8272 26.8668 26.803 26.8426C26.4642 26.5522 26.1981 26.6006 26.0045 26.9959C25.7625 27.4959 25.6093 28.0202 25.4641 28.5526C24.9963 30.2787 24.6575 32.0289 24.4074 33.7953C24.3187 34.4003 24.48 34.6342 25.093 34.7471C25.7464 34.86 26.4078 34.8036 27.0611 34.7632C27.9564 34.7068 28.8598 34.6745 29.747 34.8923C30.4729 35.0697 31.0134 35.473 31.1908 36.2474C31.2957 36.699 31.2957 37.1588 31.1505 37.6024C30.9569 38.2154 30.4568 38.4655 29.8841 38.5945C29.505 38.6832 29.1098 38.6913 28.7227 38.6913C27.7386 38.6913 26.7627 38.7074 25.7948 38.901C25.7141 38.9171 25.6334 38.9171 25.5528 38.9171C23.8751 38.9413 22.1974 39.0381 20.5117 38.9897C18.9308 38.9413 17.3499 38.8204 15.8174 38.3687C13.8574 37.7879 12.1393 36.812 10.6633 35.4004C9.90511 34.6745 9.18725 33.9163 8.46133 33.1581C7.25952 31.9079 6.02545 30.6981 4.77525 29.4963C3.9364 28.6897 3.11369 27.8508 2.3555 26.9636C1.24242 25.6731 0.581023 24.1648 0.274522 22.4871C-0.00778185 20.9546 -0.0400451 19.414 0.0486789 17.8734C0.121271 16.7119 0.476167 15.615 0.968182 14.5584C1.25855 13.9373 1.58925 13.3404 1.97641 12.7678C2.04094 12.671 2.12966 12.5822 2.16999 12.4209C1.68604 12.1467 1.13756 11.945 0.710076 11.5498C0.718142 11.453 0.790734 11.4127 0.855261 11.3724C2.36357 10.3883 3.96867 9.63016 5.73508 9.23494C6.07384 9.16234 6.09804 9.17847 6.04965 9.49304C5.83187 10.961 5.83994 12.4371 5.96899 13.9131C5.97705 13.9776 5.97705 14.0502 5.97705 14.1148C5.97705 14.1712 5.97705 14.2196 5.97705 14.3003C5.63829 14.2357 5.38825 14.018 5.10595 13.8889C4.82364 13.7599 4.55747 13.6066 4.25904 13.4453C4.07352 13.8889 3.9848 14.3487 3.89607 14.8003C3.64603 16.0506 3.50891 17.325 3.57344 18.5993C3.68636 20.8739 4.2671 22.9952 5.73508 24.802C6.78364 26.0844 8.12256 26.8749 9.75186 27.1249C11.0343 27.3185 12.2926 27.1652 13.5428 26.8668C15.1963 26.4635 16.753 25.8102 18.2936 25.1004C19.5599 24.5116 20.794 23.8583 22.0522 23.2533C23.375 22.6242 24.6978 22.0031 26.0287 21.3901C26.4562 21.1965 26.8998 21.0433 27.3757 20.9949C28.0048 20.9223 28.5371 21.1239 29.005 21.5192C29.4486 21.8983 29.7954 22.358 30.11 22.85C31.1182 24.439 32.0458 26.0764 32.8846 27.7621C33.4412 28.8833 33.9412 30.0286 34.2316 31.2465C34.2961 31.5047 34.3365 31.7708 34.3607 32.037C34.4171 32.6661 34.1348 33.0936 33.6186 33.4082C33.0379 33.7631 32.3926 33.9486 31.7312 34.0857C30.231 34.3922 28.7146 34.3519 27.1982 34.3277C26.7385 34.3196 26.2868 34.2874 25.8432 34.1664C25.2866 34.0212 25.1172 33.7712 25.1737 33.1985C25.214 32.7952 25.3511 32.4161 25.4479 32.0209C25.6173 31.3272 25.8109 30.6416 25.9803 29.956C26.1013 29.5043 26.2707 29.0849 26.4562 28.6655Z" fill="#E18A78"/>
<path d="M19.9794 23.5036C18.4792 21.0839 17.4064 18.5351 16.5918 15.7847C15.8981 16.6396 15.2367 17.4462 14.5753 18.2609C13.559 17.5591 12.7444 16.6961 12.1475 15.6395C11.8652 15.1313 11.6636 14.5909 11.5587 14.0182C11.349 12.8971 11.349 11.7759 11.5426 10.6548C12.1798 6.95259 15.3496 4.19408 19.2374 4.10536C21.2054 4.05696 22.9557 4.69416 24.5043 5.90403C25.0044 6.29119 25.44 6.75094 25.8755 7.2107C26.1256 7.4688 26.3917 7.71884 26.674 7.95275C26.8354 8.0818 26.9483 8.07374 27.0935 7.94469C27.3838 7.67045 27.6903 7.39621 27.9807 7.12197C28.7873 6.37185 29.6342 5.67013 30.594 5.11358C32.0297 4.2828 33.5623 3.86338 35.2238 4.09729C37.1112 4.36346 38.7405 5.17004 40.0714 6.5251C41.3135 7.7995 41.4829 9.32394 40.644 10.8968C40.2972 11.542 39.8536 12.1066 39.3374 12.6309C37.8613 14.1392 36.1917 15.3975 34.3608 16.438C33.53 16.9139 32.6992 17.3736 31.8684 17.8414C31.4974 18.0592 31.1425 18.3012 30.8521 18.6238C30.4972 19.0029 30.3037 19.4385 30.3117 19.9708C30.3198 20.4467 30.4166 20.9065 30.6102 21.342C31.4409 23.2536 32.5137 25.012 33.8688 26.5929C34.022 26.7703 34.1833 26.9236 34.385 27.0445C34.8608 27.3349 35.3529 27.351 35.8368 27.0607C36.0465 26.9397 36.232 26.7864 36.4014 26.609C37.3371 25.6734 38.0226 24.5764 38.5066 23.3504C38.5873 23.1407 38.6518 22.9148 38.7002 22.6971C38.7889 22.2938 38.7808 22.2857 38.3937 22.1567C37.8936 21.9792 37.3693 21.8582 36.8854 21.6243C36.4659 21.4227 35.9981 21.342 35.4577 21.2614C35.8933 21.826 36.5627 22.076 36.8612 22.7051C36.5305 22.9229 36.224 23.1407 35.9013 23.3262C35.5868 23.5117 35.4738 23.4794 35.2722 23.1729C34.9092 22.6164 34.6027 22.0437 34.3769 21.4146C34.2962 21.1888 34.2317 20.9548 34.2075 20.7129C34.1753 20.3902 34.1914 20.3741 34.5301 20.4144C35.7481 20.5354 36.845 21.0839 38.0065 21.4065C38.5066 21.5517 38.9502 21.9147 39.418 22.1647C39.5713 22.2454 39.5793 22.3583 39.5229 22.4954C39.3696 22.8584 39.168 23.1891 38.9663 23.5198C38.676 24.0037 38.3937 24.4877 38.1436 24.9958C37.9904 25.2943 37.8694 25.6088 37.8049 25.9395C37.6919 26.5203 37.9339 26.9074 38.4985 27.0768C39.0954 27.2543 39.6116 27.1171 40.0552 26.6977C40.4101 26.367 40.7166 25.996 40.9909 25.5927C41.5958 24.6974 42.0878 23.7456 42.6282 22.8181C43.5477 21.221 44.3543 19.5675 45.0722 17.8737C45.9594 15.7847 46.4837 13.623 46.403 11.3404C46.3385 9.53365 45.8868 7.83176 44.9512 6.28313C43.5881 4.00857 41.7087 2.28248 39.3212 1.13714C37.1193 0.0885803 34.8044 -0.193723 32.4088 0.201502C30.5214 0.516069 28.8034 1.24199 27.2064 2.26635C26.9644 2.4196 26.8031 2.41154 26.5692 2.25829C25.4884 1.54849 24.3269 0.983886 23.0928 0.588661C21.2619 -0.000143728 19.4067 -0.16146 17.5193 0.169238C15.1883 0.580595 13.1557 1.63722 11.349 3.13746C10.3408 3.96824 9.54225 4.9684 8.91311 6.11375C7.53386 8.61415 7.09024 11.2839 7.51773 14.0989C7.89682 16.5912 8.92118 18.769 10.7844 20.5032C11.0989 20.7935 11.4135 21.0839 11.7523 21.3985C11.2683 22.0357 10.7763 22.6729 10.373 23.4149C13.5832 24.036 16.7531 24.1489 19.9794 23.5036Z" fill="#662129"/>
<path d="M53.7752 18.6722C53.6138 16.7445 53.0815 14.9297 52.0813 13.2681C51.3716 12.0905 50.5327 11.0097 49.4116 10.1709C49.0567 9.9047 48.6695 9.68692 48.2178 9.574C48.1694 9.67885 48.1936 9.74338 48.2098 9.80791C48.3711 10.4451 48.5646 11.0742 48.7744 11.6953C49.339 13.3488 49.8794 15.0104 49.9842 16.7687C50.081 18.2931 50.0165 19.8015 49.7342 21.3017C49.468 22.7132 48.7582 23.8989 47.7903 24.9555C47.0483 25.7702 46.2578 26.5445 45.4835 27.3188C40.3778 32.4164 35.2803 37.5221 30.1746 42.6277C29.5938 43.2085 29.0212 43.7973 28.392 44.3215C28.1662 44.5151 27.9242 44.6764 27.6661 44.8216C27.1257 45.1281 26.5853 45.112 26.053 44.8216C25.7223 44.6442 25.4158 44.4264 25.1335 44.1763C24.6737 43.765 24.2301 43.3375 23.7945 42.8939C23.238 42.3131 22.6734 41.7324 22.1168 41.1517C21.7861 40.8048 21.3909 40.5951 20.915 40.5629C19.5761 40.4741 18.2452 40.2886 16.9144 40.087C16.4466 40.0225 15.9707 39.9499 15.4222 40.0144C15.5835 40.208 15.7045 40.3693 15.8336 40.5145C16.2449 40.9581 16.6563 41.4017 17.0838 41.8292C19.2535 44.0473 21.4958 46.1928 23.7058 48.3786C24.2301 48.9029 24.8189 49.3546 25.4883 49.6853C26.432 50.137 27.3757 50.1289 28.3114 49.6369C28.9244 49.3143 29.4567 48.8868 29.9568 48.419C30.4408 47.9753 30.9086 47.5075 31.3764 47.0478C36.6998 41.7647 42.0555 36.5219 47.3064 31.1662C48.5646 29.8757 49.8068 28.5771 51.0328 27.2543C51.8636 26.359 52.533 25.3588 52.9766 24.2215C53.6945 22.4228 53.9365 20.5758 53.7752 18.6722Z" fill="#662129"/>
<path d="M88.8044 3.75859C88.506 3.75859 88.506 3.76665 88.4979 4.08122C88.4898 4.46031 88.4898 4.83134 88.4979 5.21044C88.506 5.40402 88.4253 5.46854 88.2398 5.46854C87.893 5.46048 87.5381 5.46854 87.1912 5.46854C86.8202 5.46854 86.8122 5.46048 86.8122 5.08945C86.8122 3.87958 86.8122 2.6697 86.8122 1.45983C86.8122 0.871027 86.8928 0.919422 86.2798 0.919422C85.9249 0.919422 85.9249 0.927487 85.9168 1.27432C85.9168 2.3632 85.9168 3.45209 85.9168 4.54097C85.9168 5.5734 85.9168 6.60582 85.9168 7.64631C85.9168 8.21899 85.8362 8.17866 86.4653 8.17866C86.8122 8.17866 86.8122 8.17059 86.8122 7.8157C86.8122 7.29142 86.8122 6.76714 86.8122 6.24286C86.8122 5.94443 86.8202 5.93636 87.0945 5.93636C87.4736 5.92829 87.8446 5.94443 88.2237 5.92829C88.4334 5.92023 88.506 6.00895 88.4979 6.2106C88.4898 6.67841 88.4898 7.1543 88.4979 7.62212C88.506 8.22705 88.4092 8.17866 89.0625 8.17866C89.3851 8.17866 89.3932 8.17059 89.3932 7.83989C89.3932 6.67035 89.4013 5.50081 89.3932 4.33126C89.3852 3.69406 89.4981 3.75859 88.8044 3.75859Z" fill="#E18B79"/>
<path d="M84.9812 1.58889C83.8439 1.58889 82.6986 1.58889 81.5613 1.58889C81.4242 1.58889 81.3355 1.62115 81.3274 1.79053C81.3274 1.97605 81.4242 2.01637 81.5855 2.00831C81.8275 2.00024 82.0694 2.00024 82.3114 2.00024C82.6179 2.00024 82.626 2.00831 82.626 2.31481C82.626 3.22625 82.626 4.13768 82.626 5.05719C82.626 5.48468 82.626 5.92023 82.626 6.34772C82.626 6.872 82.6341 7.39627 82.626 7.92055C82.626 8.10607 82.6986 8.19479 82.8841 8.18672C83.1019 8.17866 83.3116 8.18672 83.5294 8.18672C83.8843 8.17866 83.8923 8.17866 83.8923 7.82376C83.8923 6.872 83.8923 5.92023 83.8923 4.96846C83.8923 4.08122 83.8923 3.19398 83.8923 2.30674C83.8923 2.01637 83.9004 2.01637 84.1827 2.00831C84.4489 2.00024 84.7231 2.00024 84.9893 2.00831C85.1183 2.00831 85.1829 1.95991 85.1909 1.82279C85.199 1.65341 85.1345 1.58082 84.9812 1.58889Z" fill="#E18B79"/>
<path d="M93.4503 7.86409C93.3535 7.85602 93.2648 7.85602 93.168 7.85602C92.7647 7.85602 92.3614 7.86409 91.9581 7.85602C91.6113 7.84796 91.5065 7.73504 91.4984 7.38821C91.4903 7.06557 91.4903 6.74294 91.4984 6.42031C91.4984 6.10574 91.5064 6.10574 91.8049 6.09768C92.1678 6.08961 92.5308 6.08961 92.8938 6.09768C93.0712 6.09768 93.1277 6.01702 93.1196 5.84764C93.1115 5.69439 93.0067 5.68632 92.8938 5.68632C92.5147 5.68632 92.1436 5.67825 91.7646 5.68632C91.5871 5.68632 91.4903 5.64599 91.4903 5.44434C91.4984 5.09752 91.4823 4.74262 91.4984 4.39579C91.5065 4.14575 91.5629 4.10542 91.821 4.08929C92.0872 4.08122 92.3614 4.08929 92.6276 4.08929C92.8696 4.08929 93.1116 4.08929 93.3535 4.08122C93.4261 4.08122 93.4745 4.03283 93.4745 3.95217C93.4745 3.87958 93.4584 3.81505 93.3858 3.79085C93.3213 3.76666 93.2567 3.76666 93.1841 3.76666C92.5953 3.76666 91.9985 3.75859 91.4097 3.76666C90.8209 3.77472 90.6031 4.00056 90.595 4.57324C90.5869 5.03299 90.595 5.48467 90.595 5.94443C90.595 6.38805 90.595 6.83167 90.595 7.27529C90.595 7.94475 90.7805 8.13833 91.45 8.16253C91.4742 8.16253 91.5065 8.16253 91.5307 8.16253C92.0953 8.16253 92.6599 8.16253 93.2245 8.16253C93.3051 8.16253 93.3858 8.16253 93.4664 8.15446C93.5471 8.14639 93.5794 8.08993 93.5794 8.01734C93.5874 7.92862 93.5471 7.87216 93.4503 7.86409Z" fill="#E18B79"/>
<path d="M76.7705 45.8623C76.7624 45.2896 76.835 45.3622 76.2865 45.3622C73.5038 45.3622 70.7211 45.3622 67.9384 45.3622C67.3415 45.3622 67.398 45.4671 67.398 44.8299C67.4222 38.595 67.3818 32.3601 67.4302 26.1252C67.4867 19.1402 67.4464 12.1472 67.4464 5.16218C67.4464 5.06539 67.4544 4.97666 67.4464 4.87987C67.4222 4.67823 67.5109 4.62983 67.7045 4.62983C68.5514 4.6379 69.3983 4.6379 70.2452 4.6379C70.5678 4.6379 70.8905 4.67016 71.205 4.72662C73.036 5.06539 74.3507 6.04942 75.004 7.8239C75.1976 8.34818 75.2702 8.88859 75.3267 9.43706C75.5525 11.639 74.3507 13.5426 72.2617 14.2846C71.5841 14.5266 70.8905 14.6556 70.1807 14.7282C69.7048 14.7847 69.2289 14.7847 68.7046 14.8089C68.7772 14.9621 68.8256 15.067 68.874 15.1719C69.1563 15.7203 69.4467 16.2688 69.7371 16.8092C71.4228 20.0033 73.1086 23.1973 74.7782 26.3995C74.9153 26.6656 75.0686 26.7544 75.367 26.7463C76.7543 26.7302 78.1336 26.7382 79.5209 26.7382C79.6338 26.7382 79.7548 26.7786 79.8758 26.6818C77.8029 23.0683 75.738 19.479 73.6571 15.8494C73.891 15.8171 74.0765 15.7849 74.262 15.7607C75.1976 15.6235 76.101 15.3816 76.9479 14.9541C78.303 14.2685 79.2386 13.2441 79.6016 11.7358C79.779 10.9938 79.8113 10.2517 79.7225 9.49352C79.4241 6.97699 78.1658 5.12991 75.8671 4.0249C74.9153 3.57321 73.899 3.4119 72.8505 3.41996C69.7451 3.41996 66.6398 3.41996 63.5344 3.41996C62.9295 3.41996 63.0182 3.34737 63.0182 3.92004C63.0344 11.6632 63.0021 19.3983 63.0344 27.1415C63.0666 33.6748 63.0424 40.2082 63.0424 46.7334C63.0424 47.2012 63.0182 47.169 63.478 47.169C63.4941 47.169 63.5022 47.169 63.5183 47.169C67.769 47.169 72.0116 47.169 76.2623 47.169C76.343 47.169 76.4236 47.1609 76.5043 47.169C76.7221 47.1932 76.7785 47.0802 76.7705 46.8867C76.7624 46.556 76.7785 46.2091 76.7705 45.8623Z" fill="#662129"/>
<path d="M106.533 31.6422C106.154 31.6422 106.146 31.6422 106.049 32.0052C105.444 34.1346 104.839 36.264 104.235 38.3933C103.694 40.3049 103.154 42.2165 102.613 44.1281C102.533 44.4024 102.444 44.6685 102.275 44.8944C102.113 45.1041 101.952 45.1041 101.783 44.8944C101.645 44.725 101.573 44.5234 101.508 44.3136C101.363 43.8378 101.226 43.3619 101.089 42.886C100.016 39.2564 98.9434 35.6268 97.8706 32.0052C97.7416 31.5777 97.7899 31.6503 97.3867 31.6422C96.4591 31.6422 95.5315 31.6422 94.604 31.6422C94.483 31.6422 94.362 31.61 94.2571 31.6826C94.2329 31.7874 94.2813 31.8681 94.3055 31.9568C95.5557 36.2478 96.8059 40.5308 98.0642 44.8218C98.2094 45.3219 98.411 45.8139 98.653 46.2736C99.0482 47.048 99.6612 47.5158 100.54 47.5964C100.782 47.6206 101.024 47.6206 101.266 47.6045C102.283 47.548 103.017 47.0722 103.436 46.1285C103.63 45.701 103.799 45.2654 103.928 44.8137C104.993 41.1841 106.057 37.5545 107.122 33.9249C107.34 33.1828 107.558 32.4327 107.784 31.6422C107.332 31.6422 106.937 31.6422 106.533 31.6422Z" fill="#662129"/>
<path d="M82.7149 19.0354C82.7149 20.7131 82.7149 22.3908 82.7149 24.0765C82.7149 24.4717 82.7553 24.8589 82.8682 25.2299C83.086 25.9881 83.5699 26.4801 84.3442 26.6737C84.6911 26.7624 85.0379 26.7624 85.3847 26.7624C87.7803 26.7624 90.1678 26.7624 92.5633 26.7624C92.8295 26.7624 93.1763 26.8915 93.3296 26.6979C93.4828 26.4963 93.3618 26.1575 93.378 25.8752C93.386 25.7219 93.3296 25.6493 93.1682 25.6574C93.0715 25.6655 92.9827 25.6574 92.8859 25.6574C91.1276 25.6574 89.3692 25.6574 87.6028 25.6574C87.4173 25.6574 87.2237 25.6574 87.0382 25.6413C86.2881 25.5767 85.9251 25.1896 85.9251 24.4475C85.9251 22.915 85.9251 21.3825 85.9251 19.85C85.9251 19.7855 85.9251 19.7129 85.9251 19.6484C85.9171 19.5355 85.9655 19.4709 86.0865 19.479C86.1913 19.479 86.3042 19.479 86.4091 19.479C88.0223 19.479 89.6354 19.479 91.2486 19.479C91.3454 19.479 91.4341 19.479 91.5309 19.479C91.6599 19.4871 91.7325 19.4387 91.7325 19.2935C91.7325 18.9144 91.7325 18.5434 91.7325 18.1643C91.7325 18.0513 91.6841 17.9868 91.5712 17.9868C91.4664 17.9868 91.3534 17.9868 91.2486 17.9868C89.5951 17.9868 87.9416 17.9868 86.2881 17.9868C85.9332 17.9868 85.9332 17.9868 85.9332 17.6481C85.9332 16.172 85.9332 14.696 85.9332 13.2119C85.9332 13.1312 85.9332 13.0505 85.9413 12.9699C85.9816 12.5827 86.1107 12.4456 86.4978 12.4053C86.7398 12.3811 86.9818 12.3811 87.2237 12.3811C88.974 12.3811 90.7162 12.3811 92.4665 12.3811C92.5714 12.3811 92.6843 12.3811 92.7892 12.3811C92.8859 12.3811 92.9343 12.3246 92.9343 12.2278C92.9343 11.9455 92.9343 11.6632 92.9343 11.3809C92.9343 11.2841 92.8859 11.2277 92.7972 11.2196C92.7166 11.2115 92.6359 11.2115 92.5552 11.2115C90.2968 11.2115 88.0384 11.2115 85.78 11.2115C85.3283 11.2115 84.8685 11.2357 84.4168 11.3325C83.578 11.51 83.0779 12.0342 82.8763 12.8489C82.7714 13.2764 82.723 13.72 82.723 14.1636C82.7149 15.7848 82.7149 17.4141 82.7149 19.0354Z" fill="#662129"/>
<path d="M117.124 26.7544C117.382 26.7544 117.737 26.8834 117.89 26.6818C118.043 26.4801 117.922 26.1414 117.938 25.8591C117.946 25.7058 117.882 25.6332 117.729 25.6413C117.632 25.6493 117.543 25.6413 117.446 25.6413C115.672 25.6413 113.897 25.6413 112.123 25.6413C111.921 25.6413 111.72 25.6413 111.518 25.6171C110.84 25.5445 110.486 25.1573 110.486 24.4717C110.478 22.915 110.486 21.3583 110.486 19.7936C110.486 19.4306 110.478 19.4548 110.849 19.4548C111.962 19.4548 113.083 19.4548 114.196 19.4548C114.801 19.4548 115.406 19.4467 116.011 19.4629C116.22 19.4709 116.301 19.3983 116.293 19.1806C116.277 18.8579 116.285 18.5353 116.293 18.2127C116.301 18.011 116.212 17.9465 116.027 17.9626C115.93 17.9707 115.841 17.9626 115.744 17.9626C114.115 17.9626 112.494 17.9626 110.865 17.9626C110.494 17.9626 110.494 17.9626 110.486 17.5916C110.486 16.1397 110.486 14.6879 110.486 13.236C110.486 13.1151 110.494 12.9941 110.51 12.8731C110.558 12.5424 110.663 12.4214 110.994 12.3811C111.244 12.3488 111.502 12.3488 111.76 12.3488C113.51 12.3488 115.252 12.3488 117.003 12.3488C117.1 12.3488 117.188 12.3407 117.285 12.3488C117.422 12.3569 117.479 12.2923 117.479 12.1552C117.479 11.8891 117.479 11.6148 117.479 11.3486C117.479 11.2277 117.422 11.1793 117.301 11.1793C117.237 11.1793 117.164 11.1793 117.1 11.1793C114.841 11.1793 112.583 11.1793 110.324 11.1793C109.856 11.1793 109.389 11.2035 108.921 11.3083C108.155 11.4858 107.671 11.9536 107.453 12.7037C107.332 13.1312 107.283 13.5667 107.283 14.0184C107.291 15.6881 107.283 17.3496 107.283 19.0192C107.283 20.7131 107.283 22.4069 107.283 24.1007C107.283 24.5201 107.324 24.9315 107.461 25.3267C107.687 25.9962 108.146 26.4398 108.832 26.6253C109.203 26.7302 109.574 26.7302 109.953 26.7302C112.341 26.7624 114.736 26.7624 117.124 26.7544Z" fill="#662129"/>
<path d="M120.479 46.0801C120.398 46.0881 120.318 46.0801 120.237 46.0801C118.438 46.0801 116.64 46.0801 114.833 46.0801C114.648 46.0801 114.454 46.072 114.268 46.0397C113.575 45.9268 113.268 45.5558 113.268 44.854C113.268 43.3215 113.268 41.789 113.268 40.2565C113.268 39.8452 113.244 39.8774 113.672 39.8774C115.164 39.8774 116.656 39.8774 118.148 39.8774C118.39 39.8774 118.632 39.8774 118.874 39.8774C119.003 39.8774 119.076 39.8452 119.076 39.7C119.068 39.3209 119.076 38.9499 119.076 38.5708C119.076 38.4498 119.019 38.4014 118.906 38.4095C118.809 38.4095 118.721 38.4095 118.624 38.4095C116.954 38.4095 115.293 38.4095 113.623 38.4095C113.276 38.4095 113.268 38.4014 113.268 38.0546C113.268 36.5866 113.268 35.1267 113.268 33.6587C113.268 33.5135 113.292 33.3683 113.317 33.2231C113.357 33.0134 113.478 32.9005 113.68 32.8521C113.946 32.7795 114.212 32.7957 114.478 32.7957C116.253 32.7957 118.027 32.7957 119.802 32.7957C119.898 32.7957 119.987 32.7876 120.084 32.7957C120.229 32.8037 120.269 32.7311 120.269 32.6021C120.261 32.344 120.261 32.0939 120.269 31.8358C120.269 31.6906 120.205 31.6503 120.076 31.6503C119.995 31.6503 119.914 31.6503 119.834 31.6503C117.616 31.6503 115.398 31.6503 113.18 31.6503C112.873 31.6503 112.558 31.6422 112.252 31.6826C111.22 31.8036 110.429 32.102 110.155 33.5296C110.09 33.8765 110.074 34.2233 110.074 34.5701C110.074 36.1994 110.074 37.8207 110.074 39.45C110.074 41.1035 110.074 42.7569 110.074 44.4104C110.074 44.6685 110.082 44.9186 110.115 45.1767C110.244 46.2817 110.865 46.9834 111.873 47.1447C112.179 47.1931 112.486 47.2012 112.8 47.2012C115.301 47.2093 117.801 47.2012 120.302 47.2012C120.366 47.2012 120.439 47.1931 120.503 47.2012C120.673 47.2093 120.753 47.1528 120.745 46.9754C120.737 46.7737 120.729 46.5721 120.745 46.3704C120.761 46.1607 120.705 46.0559 120.479 46.0801Z" fill="#662129"/>
<path d="M95.7332 18.4062C96.0235 18.624 96.3058 18.8499 96.6043 19.0596C97.1044 19.4064 97.6286 19.6968 98.169 19.9791C98.9918 20.4146 99.7903 20.8824 100.524 21.447C101.258 22.0117 101.468 22.786 101.339 23.6732C101.218 24.5121 100.702 25.0041 99.9435 25.2944C99.4354 25.488 98.9111 25.5687 98.3707 25.6171C97.306 25.7058 96.2575 25.5122 95.2008 25.4154C94.733 25.3751 94.733 25.3509 94.733 25.8107C94.733 26.3753 94.733 26.3833 95.3057 26.4882C96.9511 26.7947 98.6127 26.8592 100.282 26.6495C101.234 26.5285 102.146 26.2462 102.984 25.7623C103.654 25.3832 104.138 24.8266 104.372 24.1007C104.799 22.7698 104.702 21.4712 103.96 20.2694C103.476 19.4871 102.839 18.8337 102.041 18.3498C101.089 17.769 100.129 17.2044 99.1531 16.664C98.8708 16.5108 98.5965 16.3414 98.3384 16.1397C97.9593 15.8413 97.677 15.4783 97.4915 15.0267C97.4189 14.8411 97.3383 14.6476 97.3867 14.4379C97.5238 13.849 97.7416 13.3167 98.2578 12.9376C98.8062 12.5424 99.4273 12.4214 100.081 12.3811C101.129 12.3246 102.17 12.4214 103.275 12.5263C103.275 12.2359 103.275 11.9778 103.275 11.7277C103.275 11.4212 103.267 11.4293 102.984 11.397C102.025 11.2922 101.057 11.2277 100.089 11.2115C99.145 11.1954 98.2094 11.3164 97.3221 11.6632C96.5882 11.9455 95.9187 12.3407 95.3702 12.9134C94.2733 14.0668 93.7974 16.9383 95.7332 18.4062Z" fill="#662129"/>
<path d="M128.166 11.5261C128.158 11.2115 128.158 11.2115 127.859 11.2035C127.779 11.2035 127.698 11.2035 127.617 11.2035C125.698 11.2035 123.77 11.2035 121.85 11.2035C120.882 11.2035 119.914 11.2035 118.947 11.2035C118.632 11.2035 118.632 11.2115 118.624 11.51C118.624 11.6955 118.616 11.889 118.624 12.0746C118.632 12.3569 118.632 12.3649 118.922 12.3649C119.729 12.3649 120.536 12.3649 121.342 12.3649C121.858 12.3649 121.794 12.3246 121.794 12.8166C121.794 17.2931 121.794 21.7616 121.794 26.2381C121.794 26.343 121.802 26.4559 121.794 26.5608C121.786 26.6979 121.85 26.7544 121.979 26.7463C122.205 26.7382 122.439 26.7463 122.665 26.7463C123.351 26.7463 124.036 26.7463 124.722 26.7463C125.02 26.7463 125.02 26.7382 125.028 26.4317C125.028 26.3511 125.028 26.2704 125.028 26.1897C125.028 23.9716 125.028 21.7535 125.028 19.5354C125.028 17.2931 125.028 15.0508 125.028 12.8005C125.028 12.7037 125.028 12.615 125.028 12.5182C125.02 12.3972 125.085 12.3488 125.198 12.3569C125.294 12.3569 125.383 12.3569 125.48 12.3569C126.262 12.3569 127.037 12.3569 127.819 12.3569C128.158 12.3569 128.158 12.3569 128.166 12.002C128.174 11.8487 128.174 11.6874 128.166 11.5261Z" fill="#662129"/>
<path d="M90.9663 33.6668C89.3773 32.1827 87.4899 31.3599 85.3041 31.2632C84.0539 31.2067 82.8763 31.4971 81.739 31.9729C80.1903 32.6182 79.0289 33.691 78.2304 35.1589C77.5528 36.4011 77.3028 37.7561 77.2383 39.1515C77.1576 41.0309 77.7383 42.7166 78.8918 44.1765C81.0857 46.9592 83.9168 48.1691 87.4577 47.3867C88.8772 47.0722 90.1355 46.435 91.1599 45.3864C92.3859 44.1281 93.0795 42.6198 93.3296 40.8937C93.4667 39.95 93.5473 38.9983 93.3699 38.0465C93.0553 36.3124 92.2407 34.8605 90.9663 33.6668ZM88.732 43.9507C88.4336 44.604 88.0223 45.1847 87.4818 45.6606C86.393 46.6124 84.8201 46.7011 83.6506 45.8542C82.6827 45.1525 82.0697 44.1927 81.6503 43.0876C81.1502 41.7729 80.9647 40.4017 81.0211 39.0144C81.0776 37.6674 81.3518 36.3527 81.8761 35.1025C82.1181 34.5137 82.473 33.9975 82.8763 33.4974C84.1103 31.9729 86.6753 31.9568 87.9174 33.57C88.6595 34.5298 89.1031 35.6026 89.3612 36.7721C89.5467 37.6432 89.6677 38.5143 89.6516 39.4096C89.6354 40.9825 89.3854 42.5069 88.732 43.9507Z" fill="#662129"/>
</g>
<defs>
<clipPath id="clip0_110_810">
<rect width="128" height="50" fill="white"/>
</clipPath>
</defs>
</svg>
