<svg width="54" height="50" viewBox="0 0 54 50" fill="none" xmlns="http://www.w3.org/2000/svg">
<path d="M26.4562 28.6655C26.5933 29.0365 26.5772 29.4156 26.6336 29.7866C26.682 30.1415 26.7143 30.5045 26.8514 30.8513C27.0369 31.3111 27.2063 31.424 27.7064 31.424C27.787 31.424 27.8677 31.424 27.9483 31.424C28.7872 31.3998 29.255 30.6658 28.8759 29.9076C28.3355 28.8349 27.666 27.8428 26.8837 26.9313C26.8595 26.8991 26.8272 26.8668 26.803 26.8426C26.4642 26.5522 26.1981 26.6006 26.0045 26.9959C25.7625 27.4959 25.6093 28.0202 25.4641 28.5526C24.9963 30.2787 24.6575 32.0289 24.4074 33.7953C24.3187 34.4003 24.48 34.6342 25.093 34.7471C25.7464 34.86 26.4078 34.8036 27.0611 34.7632C27.9564 34.7068 28.8598 34.6745 29.747 34.8923C30.4729 35.0697 31.0134 35.473 31.1908 36.2474C31.2957 36.699 31.2957 37.1588 31.1505 37.6024C30.9569 38.2154 30.4568 38.4655 29.8841 38.5945C29.505 38.6832 29.1098 38.6913 28.7227 38.6913C27.7386 38.6913 26.7627 38.7074 25.7948 38.901C25.7141 38.9171 25.6334 38.9171 25.5528 38.9171C23.8751 38.9413 22.1974 39.0381 20.5117 38.9897C18.9308 38.9413 17.3499 38.8204 15.8174 38.3687C13.8574 37.7879 12.1393 36.812 10.6633 35.4004C9.90511 34.6745 9.18725 33.9163 8.46133 33.1581C7.25952 31.9079 6.02545 30.6981 4.77525 29.4963C3.9364 28.6897 3.11369 27.8508 2.3555 26.9636C1.24242 25.6731 0.581023 24.1648 0.274522 22.4871C-0.00778185 20.9546 -0.0400451 19.414 0.0486789 17.8734C0.121271 16.7119 0.476167 15.615 0.968182 14.5584C1.25855 13.9373 1.58925 13.3404 1.97641 12.7678C2.04094 12.671 2.12966 12.5822 2.16999 12.4209C1.68604 12.1467 1.13756 11.945 0.710076 11.5498C0.718142 11.453 0.790734 11.4127 0.855261 11.3724C2.36357 10.3883 3.96867 9.63016 5.73508 9.23494C6.07384 9.16234 6.09804 9.17847 6.04965 9.49304C5.83187 10.961 5.83994 12.4371 5.96899 13.9131C5.97705 13.9776 5.97705 14.0502 5.97705 14.1148C5.97705 14.1712 5.97705 14.2196 5.97705 14.3003C5.63829 14.2357 5.38825 14.018 5.10595 13.8889C4.82364 13.7599 4.55747 13.6066 4.25904 13.4453C4.07352 13.8889 3.9848 14.3487 3.89607 14.8003C3.64603 16.0506 3.50891 17.325 3.57344 18.5993C3.68636 20.8739 4.2671 22.9952 5.73508 24.802C6.78364 26.0844 8.12256 26.8749 9.75186 27.1249C11.0343 27.3185 12.2926 27.1652 13.5428 26.8668C15.1963 26.4635 16.753 25.8102 18.2936 25.1004C19.5599 24.5116 20.794 23.8583 22.0522 23.2533C23.375 22.6242 24.6978 22.0031 26.0287 21.3901C26.4562 21.1965 26.8998 21.0433 27.3757 20.9949C28.0048 20.9223 28.5371 21.1239 29.005 21.5192C29.4486 21.8983 29.7954 22.358 30.11 22.85C31.1182 24.439 32.0458 26.0764 32.8846 27.7621C33.4412 28.8833 33.9412 30.0286 34.2316 31.2465C34.2961 31.5047 34.3365 31.7708 34.3607 32.037C34.4171 32.6661 34.1348 33.0936 33.6186 33.4082C33.0379 33.7631 32.3926 33.9486 31.7312 34.0857C30.231 34.3922 28.7146 34.3519 27.1982 34.3277C26.7385 34.3196 26.2868 34.2874 25.8432 34.1664C25.2866 34.0212 25.1172 33.7712 25.1737 33.1985C25.214 32.7952 25.3511 32.4161 25.4479 32.0209C25.6173 31.3272 25.8109 30.6416 25.9803 29.956C26.1013 29.5043 26.2707 29.0849 26.4562 28.6655Z" fill="#E18A78"/>
<path d="M19.9794 23.5036C18.4792 21.0839 17.4064 18.5351 16.5918 15.7847C15.8981 16.6396 15.2367 17.4462 14.5753 18.2609C13.559 17.5591 12.7444 16.6961 12.1475 15.6395C11.8652 15.1313 11.6636 14.5909 11.5587 14.0182C11.349 12.8971 11.349 11.7759 11.5426 10.6548C12.1798 6.95259 15.3496 4.19408 19.2374 4.10536C21.2054 4.05696 22.9557 4.69416 24.5043 5.90403C25.0044 6.29119 25.44 6.75094 25.8755 7.2107C26.1256 7.4688 26.3917 7.71884 26.674 7.95275C26.8354 8.0818 26.9483 8.07374 27.0935 7.94469C27.3838 7.67045 27.6903 7.39621 27.9807 7.12197C28.7873 6.37185 29.6342 5.67013 30.594 5.11358C32.0297 4.2828 33.5623 3.86338 35.2238 4.09729C37.1112 4.36346 38.7405 5.17004 40.0714 6.5251C41.3135 7.7995 41.4829 9.32394 40.644 10.8968C40.2972 11.542 39.8536 12.1066 39.3374 12.6309C37.8613 14.1392 36.1917 15.3975 34.3608 16.438C33.53 16.9139 32.6992 17.3736 31.8684 17.8414C31.4974 18.0592 31.1425 18.3012 30.8521 18.6238C30.4972 19.0029 30.3037 19.4385 30.3117 19.9708C30.3198 20.4467 30.4166 20.9065 30.6102 21.342C31.4409 23.2536 32.5137 25.012 33.8688 26.5929C34.022 26.7703 34.1833 26.9236 34.385 27.0445C34.8608 27.3349 35.3529 27.351 35.8368 27.0607C36.0465 26.9397 36.232 26.7864 36.4014 26.609C37.3371 25.6734 38.0226 24.5764 38.5066 23.3504C38.5873 23.1407 38.6518 22.9148 38.7002 22.6971C38.7889 22.2938 38.7808 22.2857 38.3937 22.1567C37.8936 21.9792 37.3693 21.8582 36.8854 21.6243C36.4659 21.4227 35.9981 21.342 35.4577 21.2614C35.8933 21.826 36.5627 22.076 36.8612 22.7051C36.5305 22.9229 36.224 23.1407 35.9013 23.3262C35.5868 23.5117 35.4738 23.4794 35.2722 23.1729C34.9092 22.6164 34.6027 22.0437 34.3769 21.4146C34.2962 21.1888 34.2317 20.9548 34.2075 20.7129C34.1753 20.3902 34.1914 20.3741 34.5301 20.4144C35.7481 20.5354 36.845 21.0839 38.0065 21.4065C38.5066 21.5517 38.9502 21.9147 39.418 22.1647C39.5713 22.2454 39.5793 22.3583 39.5229 22.4954C39.3696 22.8584 39.168 23.1891 38.9663 23.5198C38.676 24.0037 38.3937 24.4877 38.1436 24.9958C37.9904 25.2943 37.8694 25.6088 37.8049 25.9395C37.6919 26.5203 37.9339 26.9074 38.4985 27.0768C39.0954 27.2543 39.6116 27.1171 40.0552 26.6977C40.4101 26.367 40.7166 25.996 40.9909 25.5927C41.5958 24.6974 42.0878 23.7456 42.6282 22.8181C43.5477 21.221 44.3543 19.5675 45.0722 17.8737C45.9594 15.7847 46.4837 13.623 46.403 11.3404C46.3385 9.53365 45.8868 7.83176 44.9512 6.28313C43.5881 4.00857 41.7087 2.28248 39.3212 1.13714C37.1193 0.0885803 34.8044 -0.193723 32.4088 0.201502C30.5214 0.516069 28.8034 1.24199 27.2064 2.26635C26.9644 2.4196 26.8031 2.41154 26.5692 2.25829C25.4884 1.54849 24.3269 0.983886 23.0928 0.588661C21.2619 -0.000143728 19.4067 -0.16146 17.5193 0.169238C15.1883 0.580595 13.1557 1.63722 11.349 3.13746C10.3408 3.96824 9.54225 4.9684 8.91311 6.11375C7.53386 8.61415 7.09024 11.2839 7.51773 14.0989C7.89682 16.5912 8.92118 18.769 10.7844 20.5032C11.0989 20.7935 11.4135 21.0839 11.7523 21.3985C11.2683 22.0357 10.7763 22.6729 10.373 23.4149C13.5832 24.036 16.7531 24.1489 19.9794 23.5036Z" fill="#662129"/>
<path d="M53.7752 18.6722C53.6138 16.7445 53.0815 14.9297 52.0813 13.2681C51.3716 12.0905 50.5327 11.0097 49.4116 10.1709C49.0567 9.9047 48.6695 9.68692 48.2178 9.574C48.1694 9.67885 48.1936 9.74338 48.2098 9.80791C48.3711 10.4451 48.5646 11.0742 48.7744 11.6953C49.339 13.3488 49.8794 15.0104 49.9842 16.7687C50.081 18.2931 50.0165 19.8015 49.7342 21.3017C49.468 22.7132 48.7582 23.8989 47.7903 24.9555C47.0483 25.7702 46.2578 26.5445 45.4835 27.3188C40.3778 32.4164 35.2803 37.5221 30.1746 42.6277C29.5938 43.2085 29.0212 43.7973 28.392 44.3215C28.1662 44.5151 27.9242 44.6764 27.6661 44.8216C27.1257 45.1281 26.5853 45.112 26.053 44.8216C25.7223 44.6442 25.4158 44.4264 25.1335 44.1763C24.6737 43.765 24.2301 43.3375 23.7945 42.8939C23.238 42.3131 22.6734 41.7324 22.1168 41.1517C21.7861 40.8048 21.3909 40.5951 20.915 40.5629C19.5761 40.4741 18.2452 40.2886 16.9144 40.087C16.4466 40.0225 15.9707 39.9499 15.4222 40.0144C15.5835 40.208 15.7045 40.3693 15.8336 40.5145C16.2449 40.9581 16.6563 41.4017 17.0838 41.8292C19.2535 44.0473 21.4958 46.1928 23.7058 48.3786C24.2301 48.9029 24.8189 49.3546 25.4883 49.6853C26.432 50.137 27.3757 50.1289 28.3114 49.6369C28.9244 49.3143 29.4567 48.8868 29.9568 48.419C30.4408 47.9753 30.9086 47.5075 31.3764 47.0478C36.6998 41.7647 42.0555 36.5219 47.3064 31.1662C48.5646 29.8757 49.8068 28.5771 51.0328 27.2543C51.8636 26.359 52.533 25.3588 52.9766 24.2215C53.6945 22.4228 53.9365 20.5758 53.7752 18.6722Z" fill="#662129"/>
</svg>
