<svg width="65" height="60" viewBox="0 0 65 60" fill="none" xmlns="http://www.w3.org/2000/svg">
<path d="M31.7469 34.3986C31.9115 34.8438 31.8921 35.2987 31.9598 35.744C32.0179 36.1698 32.0566 36.6054 32.2212 37.0216C32.4438 37.5733 32.6471 37.7088 33.2472 37.7088C33.3439 37.7088 33.4407 37.7088 33.5375 37.7088C34.5441 37.6798 35.1055 36.799 34.6506 35.8891C34.0021 34.6018 33.1988 33.4113 32.2599 32.3176C32.2309 32.2789 32.1921 32.2402 32.1631 32.2111C31.7566 31.8627 31.4372 31.9208 31.2049 32.395C30.9145 32.9951 30.7306 33.6243 30.5564 34.2631C29.995 36.3344 29.5885 38.4347 29.2885 40.5544C29.182 41.2803 29.3756 41.561 30.1112 41.6965C30.8952 41.832 31.6888 41.7643 32.4728 41.7159C33.5472 41.6481 34.6312 41.6094 35.6959 41.8708C36.567 42.0837 37.2155 42.5676 37.4285 43.4968C37.5543 44.0388 37.5543 44.5906 37.3801 45.1229C37.1478 45.8585 36.5477 46.1585 35.8605 46.3134C35.4056 46.4199 34.9313 46.4296 34.4667 46.4296C33.2859 46.4296 32.1147 46.4489 30.9532 46.6812C30.8564 46.7006 30.7597 46.7006 30.6629 46.7006C28.6496 46.7296 26.6364 46.8458 24.6135 46.7877C22.7164 46.7296 20.8193 46.5844 18.9803 46.0424C16.6283 45.3455 14.5667 44.1744 12.7955 42.4805C11.8856 41.6094 11.0242 40.6996 10.1531 39.7898C8.71094 38.2895 7.23005 36.8377 5.72981 35.3955C4.7232 34.4276 3.73594 33.421 2.82611 32.3563C1.49042 30.8077 0.696739 28.9977 0.328938 26.9845C-0.0098265 25.1455 -0.0485424 23.2968 0.0579264 21.4481C0.145037 20.0543 0.570912 18.738 1.16133 17.47C1.50977 16.7248 1.90661 16.0085 2.3712 15.3213C2.44863 15.2052 2.5551 15.0987 2.6035 14.9051C2.02276 14.576 1.36459 14.3341 0.851603 13.8598C0.861282 13.7436 0.948393 13.6952 1.02582 13.6469C2.83579 12.466 4.76191 11.5562 6.88161 11.0819C7.28813 10.9948 7.31716 11.0142 7.25909 11.3916C6.99776 13.1532 7.00743 14.9245 7.1623 16.6957C7.17198 16.7732 7.17198 16.8603 7.17198 16.9377C7.17198 17.0055 7.17198 17.0635 7.17198 17.1603C6.76546 17.0829 6.46541 16.8216 6.12665 16.6667C5.78788 16.5118 5.46848 16.3279 5.11035 16.1343C4.88774 16.6667 4.78127 17.2184 4.6748 17.7604C4.37475 19.2607 4.21021 20.7899 4.28764 22.3192C4.42315 25.0487 5.12003 27.5943 6.88161 29.7624C8.13988 31.3013 9.74659 32.2498 11.7017 32.5499C13.2407 32.7822 14.7506 32.5983 16.2509 32.2402C18.2351 31.7562 20.1031 30.9722 21.9518 30.1205C23.4714 29.4139 24.9523 28.6299 26.4622 27.904C28.0495 27.149 29.6369 26.4037 31.2339 25.6681C31.7469 25.4359 32.2793 25.2519 32.8503 25.1939C33.6053 25.1068 34.2441 25.3487 34.8055 25.823C35.3378 26.2779 35.754 26.8296 36.1315 27.42C37.3414 29.3268 38.4544 31.2916 39.4611 33.3145C40.1289 34.6599 40.729 36.0343 41.0774 37.4959C41.1549 37.8056 41.2033 38.125 41.2323 38.4444C41.3001 39.1994 40.9613 39.7123 40.3418 40.0898C39.645 40.5157 38.8706 40.7383 38.077 40.9029C36.2767 41.2707 34.457 41.2223 32.6374 41.1932C32.0857 41.1835 31.5437 41.1448 31.0113 40.9996C30.3435 40.8254 30.1402 40.5254 30.208 39.8382C30.2563 39.3542 30.4209 38.8993 30.537 38.425C30.7403 37.5926 30.9726 36.7699 31.1758 35.9472C31.321 35.4052 31.5243 34.9019 31.7469 34.3986Z" fill="white"/>
<path d="M23.975 28.2044C22.1747 25.3007 20.8874 22.2421 19.9098 18.9416C19.0774 19.9676 18.2837 20.9355 17.49 21.913C16.2705 21.071 15.2929 20.0353 14.5767 18.7674C14.2379 18.1576 13.9959 17.5091 13.8701 16.8219C13.6184 15.4765 13.6184 14.1311 13.8507 12.7858C14.6154 8.34311 18.4192 5.0329 23.0845 4.92643C25.4462 4.86835 27.5465 5.63299 29.4049 7.08484C30.005 7.54943 30.5276 8.10113 31.0503 8.65284C31.3503 8.96256 31.6697 9.26261 32.0085 9.5433C32.2021 9.69816 32.3376 9.68849 32.5118 9.53362C32.8603 9.20454 33.2281 8.87545 33.5765 8.54637C34.5444 7.64622 35.5607 6.80415 36.7125 6.1363C38.4354 5.13937 40.2744 4.63606 42.2682 4.91675C44.5331 5.23616 46.4883 6.20405 48.0853 7.83012C49.5759 9.3594 49.7791 11.1887 48.7725 13.0761C48.3563 13.8504 47.824 14.528 47.2045 15.1571C45.4333 16.9671 43.4297 18.477 41.2326 19.7256C40.2356 20.2966 39.2387 20.8484 38.2418 21.4097C37.7965 21.6711 37.3707 21.9614 37.0222 22.3486C36.5963 22.8035 36.364 23.3262 36.3737 23.965C36.3834 24.536 36.4996 25.0877 36.7319 25.6104C37.7288 27.9043 39.0161 30.0143 40.6422 31.9114C40.8261 32.1244 41.0196 32.3083 41.2616 32.4534C41.8327 32.8019 42.4231 32.8213 43.0038 32.4728C43.2555 32.3276 43.4781 32.1437 43.6814 31.9308C44.8041 30.808 45.6268 29.4917 46.2076 28.0205C46.3044 27.7688 46.3818 27.4978 46.4399 27.2365C46.5463 26.7525 46.5367 26.7429 46.0721 26.588C45.472 26.375 44.8428 26.2299 44.2621 25.9492C43.7588 25.7072 43.1974 25.6104 42.5489 25.5136C43.0716 26.1911 43.8749 26.4912 44.2331 27.2462C43.8362 27.5075 43.4684 27.7688 43.0813 27.9914C42.7038 28.2141 42.5683 28.1753 42.3263 27.8075C41.8907 27.1397 41.5229 26.4525 41.2519 25.6975C41.1551 25.4265 41.0777 25.1458 41.0487 24.8554C41.01 24.4683 41.0293 24.4489 41.4358 24.4973C42.8974 24.6425 44.2137 25.3007 45.6075 25.6878C46.2076 25.8621 46.7399 26.2976 47.3013 26.5977C47.4852 26.6945 47.4949 26.83 47.4271 26.9945C47.2432 27.4301 47.0013 27.8269 46.7593 28.2237C46.4108 28.8045 46.0721 29.3852 45.772 29.995C45.5881 30.3531 45.4429 30.7306 45.3655 31.1274C45.23 31.8243 45.5204 32.2889 46.1979 32.4922C46.9141 32.7051 47.5336 32.5406 48.0659 32.0373C48.4918 31.6404 48.8596 31.1952 49.1887 30.7112C49.9146 29.6369 50.505 28.4947 51.1535 27.3817C52.2569 25.4652 53.2248 23.481 54.0863 21.4484C55.1509 18.9416 55.7801 16.3476 55.6833 13.6085C55.6059 11.4404 55.0638 9.39812 53.9411 7.53975C52.3053 4.81028 50.0501 2.73898 47.1852 1.36456C44.5428 0.106296 41.7649 -0.232468 38.8903 0.241802C36.6254 0.619282 34.5638 1.49039 32.6473 2.71962C32.357 2.90352 32.1634 2.89384 31.8827 2.70994C30.5857 1.85819 29.1919 1.18066 27.711 0.706393C25.5139 -0.000172474 23.2877 -0.193752 21.0229 0.203086C18.2256 0.696714 15.7865 1.96466 13.6184 3.76495C12.4086 4.76189 11.4504 5.96208 10.6954 7.33649C9.04029 10.337 8.50794 13.5407 9.02093 16.9187C9.47584 19.9095 10.7051 22.5228 12.9409 24.6038C13.3184 24.9522 13.6959 25.3007 14.1024 25.6782C13.5217 26.4428 12.9312 27.2074 12.4473 28.0979C16.2995 28.8432 20.1034 28.9787 23.975 28.2044Z" fill="white"/>
<path d="M64.5299 22.4067C64.3363 20.0934 63.6975 17.9156 62.4973 15.9218C61.6455 14.5086 60.6389 13.2117 59.2935 12.205C58.8676 11.8856 58.4031 11.6243 57.861 11.4888C57.803 11.6146 57.832 11.6921 57.8514 11.7695C58.0449 12.5341 58.2772 13.2891 58.5289 14.0344C59.2064 16.0186 59.8549 18.0124 59.9807 20.1224C60.0969 21.9518 60.0194 23.7617 59.6807 25.562C59.3613 27.2559 58.5095 28.6787 57.3481 29.9466C56.4576 30.9242 55.509 31.8534 54.5799 32.7826C48.4531 38.8997 42.336 45.0265 36.2092 51.1533C35.5123 51.8501 34.8251 52.5567 34.0701 53.1858C33.7991 53.4181 33.5087 53.6117 33.199 53.7859C32.5505 54.1537 31.902 54.1344 31.2632 53.7859C30.8664 53.573 30.4986 53.3117 30.1598 53.0116C29.6081 52.518 29.0758 52.005 28.5531 51.4727C27.8852 50.7758 27.2077 50.0789 26.5399 49.382C26.143 48.9658 25.6688 48.7142 25.0977 48.6754C23.491 48.569 21.8939 48.3464 20.2969 48.1044C19.7355 48.0269 19.1645 47.9398 18.5063 48.0173C18.6999 48.2496 18.8451 48.4431 18.9999 48.6174C19.4936 49.1497 19.9872 49.682 20.5002 50.195C23.1038 52.8568 25.7946 55.4314 28.4466 58.0544C29.0758 58.6835 29.7823 59.2255 30.5857 59.6224C31.7181 60.1644 32.8506 60.1547 33.9733 59.5643C34.7089 59.1771 35.3477 58.6641 35.9478 58.1028C36.5286 57.5704 37.09 57.009 37.6513 56.4573C44.0395 50.1176 50.4663 43.8263 56.7673 37.3994C58.2772 35.8508 59.7678 34.2925 61.239 32.7051C62.2359 31.6308 63.0393 30.4306 63.5716 29.0658C64.4331 26.9074 64.7234 24.6909 64.5299 22.4067Z" fill="white"/>
</svg>
